<svg xmlns="http://www.w3.org/2000/svg" xmlns:xlink="http://www.w3.org/1999/xlink" width="500" zoomAndPan="magnify" viewBox="0 0 375 374.999991" height="500" preserveAspectRatio="xMidYMid meet" version="1.0"><defs><clipPath id="2d7d695736"><path d="M 7 68.9375 L 374.914062 68.9375 L 374.914062 243.855469 L 7 243.855469 Z M 7 68.9375 " clip-rule="nonzero"/></clipPath><clipPath id="346399ea2c"><path d="M 0.0625 113.117188 L 368 113.117188 L 368 287.507812 L 0.0625 287.507812 Z M 0.0625 113.117188 " clip-rule="nonzero"/></clipPath><clipPath id="621fa923e9"><path d="M 50.351562 155.484375 L 111.875 155.484375 L 111.875 217.007812 L 50.351562 217.007812 Z M 50.351562 155.484375 " clip-rule="nonzero"/></clipPath><clipPath id="a88f678c0f"><path d="M 92.652344 197.785156 L 131.511719 197.785156 L 131.511719 236.644531 L 92.652344 236.644531 Z M 92.652344 197.785156 " clip-rule="nonzero"/></clipPath></defs><path fill="#3b367c" d="M 254.140625 178.617188 C 254.140625 215.429688 224.300781 245.269531 187.488281 245.269531 C 150.675781 245.269531 120.835938 215.429688 120.835938 178.617188 C 120.835938 141.804688 150.675781 111.964844 187.488281 111.964844 C 224.300781 111.964844 254.140625 141.804688 254.140625 178.617188 " fill-opacity="1" fill-rule="nonzero"/><path fill="#f5f5f5" d="M 231.597656 178.617188 C 231.597656 202.976562 211.847656 222.726562 187.488281 222.726562 C 163.128906 222.726562 143.378906 202.976562 143.378906 178.617188 C 143.378906 154.253906 163.128906 134.507812 187.488281 134.507812 C 211.847656 134.507812 231.597656 154.253906 231.597656 178.617188 " fill-opacity="1" fill-rule="nonzero"/><path fill="#3b367c" d="M 207.746094 178.617188 C 207.746094 189.804688 198.675781 198.875 187.488281 198.875 C 176.300781 198.875 167.230469 189.804688 167.230469 178.617188 C 167.230469 167.429688 176.300781 158.359375 187.488281 158.359375 C 198.675781 158.359375 207.746094 167.429688 207.746094 178.617188 " fill-opacity="1" fill-rule="nonzero"/><path fill="#3b367c" d="M 162.332031 209.984375 C 162.332031 213.410156 159.550781 216.191406 156.121094 216.191406 C 152.695312 216.191406 149.914062 213.410156 149.914062 209.984375 C 149.914062 206.554688 152.695312 203.773438 156.121094 203.773438 C 159.550781 203.773438 162.332031 206.554688 162.332031 209.984375 " fill-opacity="1" fill-rule="nonzero"/><g clip-path="url(#2d7d695736)"><path fill="#3b367c" d="M 255.128906 243.765625 C 255.128906 243.765625 256.785156 242.816406 259.941406 241.011719 C 263.066406 239.164062 267.636719 236.390625 273.238281 232.496094 C 273.9375 232.007812 274.65625 231.503906 275.394531 230.988281 C 276.128906 230.46875 276.863281 229.910156 277.625 229.355469 C 278.382812 228.789062 279.167969 228.234375 279.949219 227.628906 C 280.730469 227.023438 281.53125 226.402344 282.347656 225.769531 C 283.167969 225.148438 283.984375 224.484375 284.816406 223.800781 C 285.648438 223.121094 286.503906 222.441406 287.359375 221.726562 C 289.054688 220.269531 290.832031 218.792969 292.597656 217.175781 C 294.394531 215.597656 296.175781 213.882812 298.027344 212.136719 C 298.933594 211.242188 299.855469 210.335938 300.789062 209.417969 C 301.71875 208.492188 302.628906 207.523438 303.570312 206.5625 C 307.292969 202.667969 311.0625 198.421875 314.792969 193.808594 C 322.25 184.582031 329.539062 173.855469 335.921875 161.707031 C 336.3125 160.941406 336.734375 160.191406 337.113281 159.414062 C 337.496094 158.640625 337.882812 157.863281 338.269531 157.085938 C 338.460938 156.695312 338.65625 156.304688 338.851562 155.914062 C 339.035156 155.519531 339.222656 155.121094 339.40625 154.726562 C 339.777344 153.933594 340.148438 153.136719 340.519531 152.335938 C 340.90625 151.542969 341.242188 150.722656 341.601562 149.910156 C 341.957031 149.097656 342.3125 148.28125 342.671875 147.460938 C 343.007812 146.632812 343.347656 145.804688 343.6875 144.96875 C 343.855469 144.554688 344.027344 144.136719 344.199219 143.71875 L 344.328125 143.40625 C 344.359375 143.320312 344.414062 143.191406 344.40625 143.1875 L 344.441406 143.023438 C 344.625 142.136719 344.738281 141.375 344.773438 140.730469 L 344.789062 140.492188 L 344.789062 140.4375 C 344.785156 140.421875 344.808594 140.390625 344.765625 140.390625 L 344.597656 140.355469 C 344.382812 140.308594 344.167969 140.261719 343.953125 140.214844 C 343.757812 140.175781 343.558594 140.136719 343.359375 140.097656 C 343.28125 140.085938 343.136719 140.046875 343.007812 140.015625 L 342.628906 139.917969 C 342.382812 139.855469 342.140625 139.796875 341.894531 139.734375 L 341.546875 139.648438 C 341.511719 139.640625 341.5 139.640625 341.445312 139.621094 L 341.089844 139.484375 L 340.375 139.207031 C 338.46875 138.46875 336.554688 137.722656 334.625 136.972656 C 330.777344 135.496094 326.882812 133.996094 322.945312 132.484375 C 315.085938 129.484375 307.066406 126.480469 298.902344 123.539062 C 282.578125 117.652344 265.648438 112.074219 248.179688 107.390625 C 230.734375 102.722656 213.53125 99.226562 196.820312 97.234375 C 188.464844 96.246094 180.242188 95.625 172.191406 95.382812 C 164.140625 95.148438 156.253906 95.234375 148.601562 95.804688 C 140.953125 96.355469 133.507812 97.238281 126.359375 98.527344 C 124.554688 98.78125 122.796875 99.199219 121.039062 99.5625 C 119.277344 99.929688 117.53125 100.296875 115.796875 100.660156 C 114.082031 101.101562 112.378906 101.539062 110.6875 101.976562 C 108.996094 102.417969 107.296875 102.792969 105.664062 103.332031 C 92.433594 107.164062 80.386719 112.046875 69.738281 117.347656 C 59.082031 122.640625 49.824219 128.351562 41.929688 133.796875 C 39.992188 135.207031 38.117188 136.574219 36.316406 137.886719 C 35.863281 138.214844 35.414062 138.539062 34.96875 138.863281 C 34.527344 139.183594 34.113281 139.535156 33.6875 139.867188 C 32.847656 140.535156 32.023438 141.191406 31.214844 141.835938 C 30.40625 142.476562 29.609375 143.105469 28.835938 143.722656 C 28.449219 144.027344 28.0625 144.332031 27.683594 144.632812 C 27.304688 144.9375 26.953125 145.257812 26.59375 145.566406 C 25.164062 146.804688 23.804688 147.980469 22.511719 149.097656 C 21.867188 149.65625 21.234375 150.199219 20.625 150.726562 C 20.027344 151.269531 19.46875 151.816406 18.914062 152.332031 C 17.808594 153.375 16.773438 154.347656 15.8125 155.253906 C 15.328125 155.707031 14.863281 156.144531 14.417969 156.558594 C 14.195312 156.769531 13.976562 156.976562 13.765625 157.175781 C 13.558594 157.382812 13.359375 157.585938 13.164062 157.785156 C 12.382812 158.585938 11.675781 159.3125 11.042969 159.960938 C 8.492188 162.554688 7.148438 163.917969 7.148438 163.917969 C 7.148438 163.917969 8.15625 162.289062 10.066406 159.1875 C 10.550781 158.410156 11.09375 157.542969 11.691406 156.585938 C 11.84375 156.34375 11.996094 156.101562 12.15625 155.851562 C 12.324219 155.609375 12.496094 155.359375 12.671875 155.105469 C 13.023438 154.601562 13.390625 154.074219 13.773438 153.527344 C 14.539062 152.425781 15.371094 151.242188 16.253906 149.980469 C 16.699219 149.347656 17.152344 148.6875 17.640625 148.019531 C 18.144531 147.371094 18.664062 146.703125 19.199219 146.015625 C 20.277344 144.636719 21.414062 143.183594 22.609375 141.652344 C 22.914062 141.273438 23.207031 140.875 23.527344 140.496094 C 23.851562 140.121094 24.179688 139.738281 24.515625 139.355469 C 25.179688 138.582031 25.863281 137.792969 26.5625 136.988281 C 27.261719 136.179688 27.980469 135.355469 28.710938 134.515625 C 29.082031 134.097656 29.441406 133.660156 29.832031 133.246094 C 30.222656 132.835938 30.621094 132.421875 31.019531 132 C 32.632812 130.324219 34.304688 128.582031 36.039062 126.773438 C 43.171875 119.75 51.851562 112.195312 62.320312 104.902344 C 72.777344 97.613281 85.027344 90.582031 99.027344 84.671875 C 100.753906 83.875 102.5625 83.242188 104.363281 82.539062 C 106.175781 81.855469 108 81.164062 109.839844 80.464844 C 111.714844 79.855469 113.601562 79.242188 115.503906 78.621094 C 117.410156 78.011719 119.324219 77.351562 121.300781 76.859375 C 129.140625 74.605469 137.351562 72.847656 145.84375 71.511719 C 154.335938 70.164062 163.117188 69.402344 172.082031 69.082031 C 181.046875 68.773438 190.199219 68.957031 199.457031 69.632812 C 217.972656 71 236.882812 74.375 255.675781 79.40625 C 274.449219 84.4375 292.210938 90.800781 308.878906 97.671875 C 317.21875 101.101562 325.296875 104.652344 333.125 108.238281 C 337.042969 110.027344 340.890625 111.835938 344.6875 113.632812 C 346.578125 114.539062 348.457031 115.4375 350.328125 116.335938 L 351.027344 116.671875 L 351.980469 117.121094 C 352.804688 117.503906 353.621094 117.890625 354.441406 118.269531 C 356.066406 119.03125 357.691406 119.789062 359.304688 120.542969 C 360.109375 120.917969 360.910156 121.296875 361.710938 121.667969 C 362.507812 122.042969 363.300781 122.40625 364.109375 122.816406 C 365.707031 123.613281 367.300781 124.40625 368.886719 125.195312 C 370.457031 125.976562 372.027344 126.757812 373.585938 127.535156 L 374.75 128.113281 L 374.894531 128.183594 C 374.957031 128.203125 374.871094 128.28125 374.871094 128.328125 L 374.484375 129.277344 C 374.144531 130.117188 373.800781 130.957031 373.460938 131.796875 C 372.78125 133.457031 372.105469 135.117188 371.4375 136.769531 C 370.761719 138.390625 370.09375 140.007812 369.425781 141.617188 C 369.089844 142.417969 368.761719 143.214844 368.429688 144.011719 C 368.105469 144.804688 367.710938 145.59375 367.363281 146.378906 C 366.640625 147.941406 365.921875 149.496094 365.207031 151.046875 L 364.671875 152.203125 C 364.574219 152.421875 364.523438 152.503906 364.453125 152.640625 L 364.273438 152.976562 C 364.03125 153.425781 363.792969 153.875 363.554688 154.320312 C 363.078125 155.214844 362.597656 156.105469 362.125 156.992188 C 361.625 157.863281 361.128906 158.734375 360.636719 159.601562 C 360.136719 160.464844 359.660156 161.335938 359.136719 162.171875 C 358.625 163.015625 358.113281 163.855469 357.601562 164.695312 C 357.347656 165.113281 357.089844 165.527344 356.835938 165.945312 C 356.570312 166.351562 356.304688 166.761719 356.042969 167.167969 C 355.515625 167.980469 354.988281 168.792969 354.464844 169.601562 C 353.949219 170.410156 353.386719 171.1875 352.851562 171.976562 C 344.230469 184.550781 334.742188 195.089844 325.335938 203.742188 C 320.632812 208.074219 315.941406 211.9375 311.375 215.390625 C 310.222656 216.242188 309.105469 217.097656 307.972656 217.902344 C 306.839844 218.699219 305.722656 219.484375 304.621094 220.257812 C 302.382812 221.753906 300.234375 223.207031 298.085938 224.515625 C 295.972656 225.863281 293.867188 227.0625 291.863281 228.238281 C 290.851562 228.8125 289.84375 229.351562 288.867188 229.890625 C 287.890625 230.429688 286.929688 230.949219 285.972656 231.429688 C 285.023438 231.914062 284.089844 232.390625 283.183594 232.855469 C 282.273438 233.316406 281.363281 233.730469 280.484375 234.152344 C 279.605469 234.566406 278.753906 234.984375 277.914062 235.363281 C 277.066406 235.734375 276.242188 236.097656 275.441406 236.449219 C 269.03125 239.238281 263.921875 241.011719 260.453125 242.144531 C 258.714844 242.710938 257.371094 243.089844 256.480469 243.363281 C 255.585938 243.628906 255.128906 243.765625 255.128906 243.765625 " fill-opacity="1" fill-rule="nonzero"/></g><g clip-path="url(#346399ea2c)"><path fill="#f5f5f5" d="M 119.851562 113.46875 C 119.851562 113.46875 118.191406 114.417969 115.035156 116.222656 C 111.910156 118.070312 107.34375 120.839844 101.738281 124.738281 C 101.039062 125.226562 100.324219 125.726562 99.585938 126.242188 C 98.851562 126.761719 98.117188 127.320312 97.351562 127.878906 C 96.597656 128.441406 95.808594 129 95.027344 129.605469 C 94.246094 130.210938 93.449219 130.828125 92.628906 131.460938 C 91.808594 132.082031 90.992188 132.75 90.160156 133.429688 C 89.328125 134.113281 88.472656 134.792969 87.617188 135.507812 C 85.921875 136.964844 84.148438 138.441406 82.378906 140.058594 C 80.585938 141.632812 78.800781 143.351562 76.949219 145.097656 C 76.042969 145.988281 75.125 146.898438 74.191406 147.816406 C 73.257812 148.738281 72.347656 149.710938 71.40625 150.671875 C 67.683594 154.566406 63.914062 158.808594 60.183594 163.425781 C 52.726562 172.652344 45.4375 183.375 39.058594 195.527344 C 38.664062 196.289062 38.242188 197.039062 37.867188 197.820312 C 37.480469 198.589844 37.097656 199.367188 36.710938 200.148438 C 36.515625 200.539062 36.320312 200.929688 36.128906 201.320312 C 35.941406 201.714844 35.757812 202.109375 35.570312 202.507812 C 35.203125 203.300781 34.828125 204.097656 34.457031 204.898438 C 34.074219 205.691406 33.734375 206.511719 33.375 207.324219 C 33.023438 208.136719 32.664062 208.953125 32.304688 209.773438 C 31.96875 210.597656 31.628906 211.429688 31.289062 212.265625 C 31.121094 212.679688 30.949219 213.097656 30.78125 213.515625 L 30.652344 213.828125 C 30.621094 213.910156 30.5625 214.042969 30.570312 214.042969 L 30.535156 214.210938 C 30.355469 215.097656 30.242188 215.859375 30.203125 216.503906 L 30.191406 216.738281 L 30.1875 216.796875 C 30.191406 216.8125 30.167969 216.84375 30.210938 216.84375 L 30.378906 216.878906 C 30.59375 216.925781 30.808594 216.96875 31.023438 217.015625 C 31.222656 217.054688 31.417969 217.09375 31.617188 217.132812 C 31.695312 217.144531 31.839844 217.1875 31.96875 217.21875 L 32.351562 217.316406 C 32.59375 217.375 32.835938 217.4375 33.082031 217.5 L 33.433594 217.585938 C 33.46875 217.59375 33.476562 217.589844 33.53125 217.609375 L 33.890625 217.75 L 34.601562 218.027344 C 36.507812 218.765625 38.425781 219.511719 40.355469 220.257812 C 44.203125 221.738281 48.097656 223.234375 52.03125 224.75 C 59.894531 227.746094 67.910156 230.753906 76.074219 233.691406 C 92.402344 239.582031 109.328125 245.160156 126.796875 249.84375 C 144.246094 254.511719 161.445312 258.003906 178.15625 260 C 186.511719 260.988281 194.734375 261.605469 202.785156 261.851562 C 210.835938 262.085938 218.722656 262 226.375 261.429688 C 234.023438 260.878906 241.46875 259.996094 248.621094 258.707031 C 250.425781 258.453125 252.183594 258.035156 253.941406 257.671875 C 255.699219 257.300781 257.449219 256.9375 259.179688 256.574219 C 260.898438 256.132812 262.601562 255.691406 264.289062 255.257812 C 265.980469 254.8125 267.679688 254.4375 269.316406 253.902344 C 282.546875 250.066406 294.589844 245.1875 305.238281 239.886719 C 315.894531 234.589844 325.152344 228.882812 333.046875 223.4375 C 334.984375 222.023438 336.859375 220.660156 338.664062 219.347656 C 339.113281 219.019531 339.5625 218.695312 340.007812 218.371094 C 340.453125 218.046875 340.863281 217.695312 341.289062 217.367188 C 342.128906 216.695312 342.953125 216.042969 343.761719 215.398438 C 344.574219 214.753906 345.367188 214.128906 346.140625 213.511719 C 346.53125 213.203125 346.914062 212.902344 347.292969 212.597656 C 347.671875 212.296875 348.023438 211.972656 348.382812 211.667969 C 349.8125 210.429688 351.175781 209.25 352.464844 208.132812 C 353.113281 207.574219 353.742188 207.03125 354.355469 206.503906 C 354.949219 205.960938 355.507812 205.417969 356.0625 204.898438 C 357.171875 203.859375 358.207031 202.882812 359.167969 201.980469 C 359.648438 201.527344 360.113281 201.089844 360.558594 200.671875 C 360.78125 200.460938 361 200.257812 361.214844 200.058594 C 361.417969 199.851562 361.621094 199.648438 361.8125 199.445312 C 362.59375 198.644531 363.300781 197.921875 363.933594 197.273438 C 366.488281 194.679688 367.828125 193.316406 367.828125 193.316406 C 367.828125 193.316406 366.820312 194.945312 364.910156 198.046875 C 364.425781 198.820312 363.882812 199.691406 363.289062 200.648438 C 363.132812 200.890625 362.984375 201.132812 362.824219 201.382812 C 362.652344 201.625 362.480469 201.875 362.304688 202.125 C 361.953125 202.632812 361.589844 203.160156 361.207031 203.707031 C 360.4375 204.808594 359.609375 205.988281 358.722656 207.253906 C 358.277344 207.886719 357.824219 208.546875 357.339844 209.210938 C 356.832031 209.859375 356.3125 210.53125 355.78125 211.21875 C 354.703125 212.597656 353.5625 214.050781 352.367188 215.582031 C 352.066406 215.960938 351.769531 216.359375 351.449219 216.738281 C 351.125 217.113281 350.796875 217.492188 350.464844 217.878906 C 349.796875 218.652344 349.113281 219.4375 348.414062 220.246094 C 347.714844 221.054688 346.996094 221.878906 346.265625 222.71875 C 345.898438 223.136719 345.539062 223.574219 345.148438 223.988281 C 344.753906 224.398438 344.359375 224.8125 343.957031 225.230469 C 342.347656 226.910156 340.671875 228.652344 338.941406 230.457031 C 331.804688 237.484375 323.125 245.035156 312.65625 252.328125 C 302.199219 259.621094 289.953125 266.652344 275.953125 272.5625 C 274.222656 273.359375 272.417969 273.988281 270.613281 274.691406 C 268.804688 275.378906 266.976562 276.070312 265.136719 276.769531 C 263.265625 277.378906 261.375 277.992188 259.476562 278.613281 C 257.566406 279.222656 255.652344 279.882812 253.679688 280.375 C 245.835938 282.625 237.628906 284.386719 229.136719 285.71875 C 220.640625 287.070312 211.863281 287.828125 202.898438 288.148438 C 193.929688 288.460938 184.777344 288.277344 175.519531 287.601562 C 157.003906 286.234375 138.09375 282.859375 119.304688 277.828125 C 100.527344 272.792969 82.765625 266.429688 66.097656 259.5625 C 57.761719 256.132812 49.679688 252.582031 41.851562 248.996094 C 37.933594 247.207031 34.089844 245.398438 30.289062 243.601562 C 28.398438 242.695312 26.519531 241.792969 24.652344 240.898438 L 23.949219 240.5625 L 22.996094 240.109375 C 22.175781 239.726562 21.355469 239.34375 20.535156 238.964844 C 18.910156 238.203125 17.289062 237.445312 15.671875 236.691406 C 14.867188 236.3125 14.066406 235.9375 13.265625 235.5625 C 12.46875 235.191406 11.679688 234.828125 10.871094 234.414062 C 9.269531 233.621094 7.679688 232.828125 6.089844 232.039062 C 4.519531 231.257812 2.953125 230.476562 1.394531 229.699219 L 0.230469 229.121094 L 0.0859375 229.046875 C 0.0234375 229.03125 0.105469 228.953125 0.105469 228.90625 L 0.238281 228.589844 L 0.492188 227.957031 C 0.835938 227.117188 1.175781 226.277344 1.515625 225.4375 C 2.195312 223.773438 2.871094 222.117188 3.542969 220.464844 C 4.214844 218.84375 4.886719 217.226562 5.554688 215.617188 C 5.886719 214.816406 6.214844 214.019531 6.546875 213.222656 C 6.871094 212.429688 7.265625 211.640625 7.617188 210.855469 C 8.339844 209.292969 9.058594 207.734375 9.773438 206.183594 L 10.304688 205.03125 C 10.40625 204.8125 10.457031 204.730469 10.527344 204.59375 L 10.707031 204.257812 C 10.945312 203.808594 11.183594 203.359375 11.421875 202.910156 C 11.902344 202.019531 12.378906 201.128906 12.855469 200.242188 C 13.351562 199.371094 13.847656 198.5 14.339844 197.632812 C 14.839844 196.769531 15.316406 195.898438 15.839844 195.058594 C 16.355469 194.214844 16.867188 193.375 17.375 192.539062 C 17.632812 192.121094 17.886719 191.707031 18.140625 191.289062 C 18.40625 190.882812 18.671875 190.472656 18.933594 190.066406 C 19.464844 189.25 19.988281 188.441406 20.511719 187.632812 C 21.03125 186.824219 21.589844 186.042969 22.125 185.257812 C 30.75 172.679688 40.238281 162.144531 49.640625 153.492188 C 54.347656 149.160156 59.035156 145.292969 63.601562 141.84375 C 64.753906 140.992188 65.871094 140.136719 67.003906 139.332031 C 68.140625 138.535156 69.257812 137.75 70.355469 136.976562 C 72.59375 135.480469 74.746094 134.023438 76.890625 132.71875 C 79.003906 131.371094 81.113281 130.167969 83.117188 128.996094 C 84.125 128.421875 85.132812 127.882812 86.109375 127.34375 C 87.089844 126.804688 88.046875 126.28125 89.003906 125.804688 C 89.957031 125.320312 90.886719 124.84375 91.796875 124.378906 C 92.707031 123.917969 93.617188 123.503906 94.492188 123.082031 C 95.371094 122.667969 96.222656 122.25 97.066406 121.871094 C 97.910156 121.5 98.734375 121.136719 99.535156 120.785156 C 105.949219 117.992188 111.054688 116.222656 114.527344 115.089844 C 116.261719 114.523438 117.605469 114.144531 118.496094 113.871094 C 119.390625 113.605469 119.851562 113.46875 119.851562 113.46875 " fill-opacity="1" fill-rule="nonzero"/></g><g clip-path="url(#621fa923e9)"><path fill="#f5f5f5" d="M 112.300781 186.457031 C 89.070312 190.734375 85.605469 194.203125 81.328125 217.433594 C 77.050781 194.203125 73.582031 190.734375 50.351562 186.457031 C 73.582031 182.183594 77.050781 178.714844 81.328125 155.484375 C 85.605469 178.714844 89.070312 182.183594 112.300781 186.457031 Z M 112.300781 186.457031 " fill-opacity="1" fill-rule="nonzero"/></g><g clip-path="url(#a88f678c0f)"><path fill="#f5f5f5" d="M 131.964844 217.441406 C 117.222656 220.152344 115.023438 222.355469 112.308594 237.09375 C 109.59375 222.355469 107.394531 220.152344 92.652344 217.441406 C 107.394531 214.726562 109.59375 212.527344 112.308594 197.785156 C 115.023438 212.527344 117.222656 214.726562 131.964844 217.441406 Z M 131.964844 217.441406 " fill-opacity="1" fill-rule="nonzero"/></g></svg>